<?xml version="1.0" encoding="UTF-8" standalone="no"?>
<!-- Generator: Adobe Illustrator 16.0.0, SVG Export Plug-In . SVG Version: 6.00 Build 0)  -->

<svg
   xmlns:dc="http://purl.org/dc/elements/1.1/"
   xmlns:cc="http://creativecommons.org/ns#"
   xmlns:rdf="http://www.w3.org/1999/02/22-rdf-syntax-ns#"
   xmlns:svg="http://www.w3.org/2000/svg"
   xmlns="http://www.w3.org/2000/svg"
   xmlns:sodipodi="http://sodipodi.sourceforge.net/DTD/sodipodi-0.dtd"
   xmlns:inkscape="http://www.inkscape.org/namespaces/inkscape"
   version="1.1"
   id="Layer_1"
   x="0px"
   y="0px"
   width="166.19727"
   height="140.871"
   viewBox="0 -0.018 166.19726 140.871"
   enable-background="new 0 -0.018 208.703 207.75"
   xml:space="preserve"
   inkscape:version="0.91 r13725"
   sodipodi:docname="black-button-home.svg"><metadata
     id="metadata32"><rdf:RDF><cc:Work
         rdf:about=""><dc:format>image/svg+xml</dc:format><dc:type
           rdf:resource="http://purl.org/dc/dcmitype/StillImage" /><dc:title></dc:title></cc:Work></rdf:RDF></metadata><defs
     id="defs30"><sodipodi:namedview
       inkscape:pageshadow="2"
       inkscape:window-width="565"
       inkscape:window-height="555"
       inkscape:window-x="148"
       inkscape:pageopacity="0.0"
       inkscape:document-units="px"
       inkscape:current-layer="layer1"
       inkscape:window-y="445"
       inkscape:window-maximized="0"
       fit-margin-right="0"
       fit-margin-bottom="0"
       id="base"
       pagecolor="#ffffff"
       bordercolor="#666666"
       borderopacity="1.0"
       inkscape:zoom="0.2"
       inkscape:cx="-494.04836"
       inkscape:cy="-591.93181"
       showgrid="false"
       fit-margin-top="0"
       fit-margin-left="0" /></defs><sodipodi:namedview
     pagecolor="#ffffff"
     bordercolor="#666666"
     borderopacity="1"
     objecttolerance="10"
     gridtolerance="10"
     guidetolerance="10"
     inkscape:pageopacity="0"
     inkscape:pageshadow="2"
     inkscape:window-width="1215"
     inkscape:window-height="1000"
     id="namedview28"
     showgrid="false"
     fit-margin-top="5"
     fit-margin-left="5"
     fit-margin-right="5"
     fit-margin-bottom="5"
     inkscape:zoom="3.2130388"
     inkscape:cx="70.525908"
     inkscape:cy="74.138869"
     inkscape:window-x="65"
     inkscape:window-y="24"
     inkscape:window-maximized="1"
     inkscape:current-layer="Layer_1" /><g
     inkscape:groupmode="layer"
     inkscape:label="Layer 1"
     transform="translate(-115.09366,-768.94514)"
     id="layer1" /><g
     id="Layer_2"
     style="fill:#000000"
     transform="translate(-21.296984,-34.565)"><g
       id="g20"
       style="fill:#000000"><g
         id="g22"
         style="fill:#000000"><path
           stroke-miterlimit="10"
           d="m 104.393,66.263 -55.35,47.98 c 0,0.067 -0.017,0.168 -0.048,0.303 -0.032,0.136 -0.05,0.232 -0.05,0.302 l 0,48.586 c 0,1.755 0.609,3.274 1.828,4.555 1.222,1.281 2.663,1.927 4.332,1.927 l 36.965,0 0,-38.869 24.647,0 0,38.871 36.963,0 c 1.668,0 3.113,-0.645 4.332,-1.928 1.219,-1.279 1.832,-2.801 1.832,-4.555 l 0,-48.587 c 0,-0.269 -0.035,-0.472 -0.098,-0.604 L 104.393,66.263 Z"
           id="path24"
           style="fill:#000000;stroke:#000000;stroke-miterlimit:10"
           inkscape:connector-curvature="0" /><path
           stroke-miterlimit="10"
           d="m 180.92,103.312 -21.08,-18.422 0,-41.299 c 0,-0.944 -0.287,-1.721 -0.867,-2.328 -0.574,-0.606 -1.313,-0.91 -2.213,-0.91 l -18.482,0 c -0.898,0 -1.637,0.304 -2.215,0.91 -0.578,0.607 -0.867,1.384 -0.867,2.328 l 0,19.737 -23.484,-20.65 c -2.051,-1.753 -4.49,-2.631 -7.315,-2.631 -2.822,0 -5.262,0.878 -7.314,2.631 l -69.217,60.633 c -0.641,0.54 -0.992,1.265 -1.059,2.175 -0.063,0.911 0.159,1.706 0.674,2.381 l 5.97,7.49 c 0.515,0.605 1.187,0.979 2.021,1.113 0.771,0.068 1.542,-0.17 2.313,-0.709 l 66.611,-58.405 66.615,58.405 c 0.514,0.472 1.186,0.705 2.02,0.705 l 0.289,0 c 0.834,-0.133 1.506,-0.506 2.023,-1.111 l 5.969,-7.488 c 0.512,-0.677 0.736,-1.472 0.672,-2.382 -0.07,-0.907 -0.421,-1.634 -1.064,-2.173 z"
           id="path26"
           style="fill:#000000;stroke:#000000;stroke-miterlimit:10"
           inkscape:connector-curvature="0" /></g></g></g></svg>